<svg xmlns="http://www.w3.org/2000/svg" viewBox="0 0 210.77 197.91"><defs><style>.cls-1{fill:#fff;}.cls-2{opacity:0.2;}.cls-3{fill:#98c4e9;}.cls-4{opacity:0.15;}.cls-5{fill:#afc6e7;}.cls-6,.cls-7{fill:#231f20;}.cls-6{stroke:#fff;stroke-miterlimit:10;stroke-width:0.65px;}.cls-8{fill:#e9e612;}</style></defs><title>ghost</title><g id="Layer_2" data-name="Layer 2"><g id="crown"><path class="cls-1" d="M210.77,197.91c-.64-.38-41.74-25.32-55.26-29.06-19.49-5.39-60.86-1.08-60.86-1.08h0a80.28,80.28,0,0,1-13.24,1.09C36.45,168.85,0,131.79,0,86.06S36.45,3.26,81.42,3.26c37.08,0,68.38,25.21,78.2,59.7l0,.08c.77,2.22,17.46,49.71,24.52,63.24C194.87,146.78,210.53,197.12,210.77,197.91Z"/><g class="cls-2"><path class="cls-3" d="M81.74,7.23a76,76,0,0,1,47,16.11A79.46,79.46,0,0,1,156.18,64s0,.15.1.31c.45,1.29,17.19,49,24.28,62.57,8.13,15.57,19.34,49.28,23.92,63.51C191.9,183,165.92,168,155.37,165.09A85.72,85.72,0,0,0,137,162.58c-3.35-.17-6.79-.26-10.5-.26-3,0-6.23.06-9.71.18-5.28.17-10.72.48-16.19.91-2.31.18-4.63.44-6.86.69a108.47,108.47,0,0,1-12,.9C39,165,4.21,129.61,4.21,86.12S39,7.23,81.74,7.23m0-2.61C37.47,4.62,1.59,41.1,1.59,86.12s35.88,81.49,80.15,81.49c6.41,0,12.71-1.1,19.09-1.6,5.35-.41,10.71-.72,16.07-.9q4.81-.17,9.63-.17c3.45,0,6.91.07,10.36.25a83.19,83.19,0,0,1,17.78,2.42c13.3,3.68,53.76,28.23,54.39,28.61-.23-.78-15.65-50.33-26.18-70.51-6.95-13.31-23.37-60.06-24.14-62.25a.24.24,0,0,1,0-.08c-9.67-33.95-40.48-58.76-77-58.76Z"/></g><g class="cls-4"><ellipse class="cls-5" cx="28.21" cy="137.28" rx="3.04" ry="5.27" transform="translate(-59.87 28.27) rotate(-27.33)"/></g><g class="cls-4"><ellipse class="cls-5" cx="34.37" cy="142.11" rx="2.31" ry="3.16" transform="translate(-51.73 23.94) rotate(-22.48)"/></g><g class="cls-4"><ellipse class="cls-5" cx="33.02" cy="137.58" rx="1.08" ry="1.24" transform="translate(-46.04 20.24) rotate(-20.47)"/></g><g class="cls-4"><ellipse class="cls-5" cx="170.07" cy="115.71" rx="5.27" ry="3.04" transform="translate(49.1 282.08) rotate(-88.21)"/></g><g class="cls-4"><ellipse class="cls-5" cx="167.04" cy="108.49" rx="3.16" ry="2.31" transform="translate(39.98 261.87) rotate(-83.36)"/></g><g class="cls-4"><ellipse class="cls-5" cx="166.01" cy="113.1" rx="1.24" ry="1.08" transform="translate(29.25 260.24) rotate(-81.36)"/></g><g class="cls-4"><circle class="cls-5" cx="170.91" cy="108.61" r="0.84"/></g><g class="cls-4"><ellipse class="cls-5" cx="174.58" cy="119.39" rx="1.34" ry="2.03" transform="translate(-15.58 26.81) rotate(-8.41)"/></g><ellipse class="cls-6" cx="92.39" cy="55.96" rx="16.29" ry="20.95"/><ellipse class="cls-6" cx="49.49" cy="55.96" rx="16.29" ry="20.95"/><circle class="cls-7" cx="72.8" cy="90.7" r="6.57"/><path class="cls-1" d="M41.78,40.64l2.29.43s-4.1,1.69-5,4.51C39.09,45.58,40.19,41.58,41.78,40.64Z"/><path class="cls-1" d="M85.18,40.64l2.29.43s-4.11,1.69-5,4.51C82.48,45.58,83.59,41.58,85.18,40.64Z"/><line class="cls-8" x1="75.64" x2="86.93"/></g></g></svg>