<svg xmlns="http://www.w3.org/2000/svg" viewBox="0 0 526.93 587.52"><defs><style>.cls-1{fill:#fff;}.cls-2{opacity:0.2;}.cls-3{fill:#98c4e9;}.cls-4{opacity:0.15;}.cls-5{fill:#afc6e7;}.cls-6,.cls-7{fill:#231f20;}.cls-6{stroke:#fff;stroke-miterlimit:10;stroke-width:1.63px;}.cls-8{fill:#e9e612;}.cls-9{fill:#e64825;}.cls-10{fill:#c63b27;}.cls-11{fill:#3b4da1;}.cls-12{fill:#304283;}</style></defs><title>ghost-king</title><g id="Layer_2" data-name="Layer 2"><g id="crown"><path class="cls-1" d="M526.93,587.52c-1.6-1-104.36-63.3-138.16-72.65-48.72-13.48-152.14-2.71-152.14-2.71l0,0a200.71,200.71,0,0,1-33.1,2.73C91.13,514.87,0,422.21,0,307.89s91.13-207,203.55-207c92.71,0,170.94,63,195.5,149.25l.07.19c1.94,5.56,43.66,124.28,61.3,158.09C487.17,459.69,526.32,585.54,526.93,587.52Z"/><g class="cls-2"><path class="cls-3" d="M204.34,110.83a190.8,190.8,0,0,1,117.38,40.25A197.46,197.46,0,0,1,390.49,253q.09.31.21.66c1.11,3.15,43,122.47,60.71,156.42,20.32,39,48.34,123.21,59.8,158.79-31.45-18.63-96.4-56-122.8-63.34-15.31-4.24-31.08-5.53-45.84-6.29-8.37-.43-17-.64-26.26-.64-7.61,0-15.55.14-24.27.43-13.18.44-26.8,1.21-40.48,2.28-5.77.45-11.55,1.1-17.14,1.72-10.34,1.16-20.1,2.26-30.08,2.26a189.76,189.76,0,0,1-75.4-15.48,192.94,192.94,0,0,1-61.61-42.24,196.58,196.58,0,0,1-41.56-62.69,201,201,0,0,1,0-153.59,196.58,196.58,0,0,1,41.56-62.69,193,193,0,0,1,61.61-42.25,189.75,189.75,0,0,1,75.4-15.47m0-6.54C93.69,104.29,4,195.5,4,308s89.7,203.74,200.35,203.74c16,0,31.78-2.76,47.73-4q20.07-1.56,40.19-2.25c8-.27,16-.43,24.05-.43,8.65,0,17.29.18,25.92.63,14.88.77,30,2.07,44.44,6.06,33.26,9.2,134.42,70.56,136,71.5-.59-1.94-39.13-125.82-65.46-176.28-17.37-33.27-58.43-150.14-60.35-155.61a1.13,1.13,0,0,1-.06-.19C372.61,166.32,295.6,104.29,204.34,104.29Z"/></g><g class="cls-4"><ellipse class="cls-5" cx="70.52" cy="435.93" rx="7.59" ry="13.17" transform="translate(-192.24 81.02) rotate(-27.33)"/></g><g class="cls-4"><ellipse class="cls-5" cx="85.93" cy="448.02" rx="5.77" ry="7.91" transform="translate(-164.78 66.9) rotate(-22.48)"/></g><g class="cls-4"><ellipse class="cls-5" cx="82.56" cy="436.68" rx="2.71" ry="3.11" transform="translate(-147.53 56.46) rotate(-20.47)"/></g><g class="cls-4"><ellipse class="cls-5" cx="425.18" cy="382.01" rx="13.17" ry="7.59" transform="translate(30.06 795.04) rotate(-88.21)"/></g><g class="cls-4"><ellipse class="cls-5" cx="417.6" cy="363.96" rx="7.91" ry="5.77" transform="translate(7.82 736.7) rotate(-83.36)"/></g><g class="cls-4"><ellipse class="cls-5" cx="415.03" cy="375.5" rx="3.11" ry="2.71" transform="translate(-18.57 729.39) rotate(-81.36)"/></g><g class="cls-4"><circle class="cls-5" cx="427.27" cy="364.26" r="2.09"/></g><g class="cls-4"><ellipse class="cls-5" cx="436.46" cy="391.22" rx="3.34" ry="5.06" transform="translate(-52.51 68.01) rotate(-8.41)"/></g><ellipse class="cls-6" cx="231.1" cy="233.07" rx="40.73" ry="52.37"/><ellipse class="cls-6" cx="123.87" cy="233.07" rx="40.73" ry="52.37"/><circle class="cls-7" cx="182.13" cy="319.92" r="16.42"/><path class="cls-1" d="M104.58,194.75l5.74,1.09s-10.26,4.22-12.46,11.26C97.86,207.1,100.62,197.12,104.58,194.75Z"/><path class="cls-1" d="M213.08,194.75l5.73,1.09s-10.26,4.22-12.46,11.26C206.35,207.1,209.12,197.12,213.08,194.75Z"/><path class="cls-8" d="M265.08,26.21v93.32H142V26.21L177.57,56.6s0,.07-.09.1h.2l-.11-.1C203.35,23.41,203.35,0,203.35,0s0,23.46,25.87,56.7h.19Z"/><line class="cls-8" x1="189.25" y1="93.16" x2="217.46" y2="93.16"/><rect class="cls-9" x="193.38" y="83.19" width="19.95" height="19.95" transform="translate(-6.31 171.08) rotate(-45)"/><path class="cls-10" d="M203.35,81.37l11.8,11.79L203.35,105,191.56,93.16l11.79-11.79m0-2.31-14.1,14.1,14.1,14.1,14.11-14.1-14.11-14.1Z"/><circle class="cls-11" cx="159.85" cy="93.16" r="6.22"/><circle class="cls-11" cx="247.24" cy="93.16" r="6.22"/><path class="cls-12" d="M159.85,88.58a4.58,4.58,0,1,1-4.58,4.58,4.58,4.58,0,0,1,4.58-4.58m0-1.64a6.22,6.22,0,1,0,6.22,6.22,6.23,6.23,0,0,0-6.22-6.22Z"/><path class="cls-12" d="M247.24,88.58a4.58,4.58,0,1,1-4.58,4.58,4.59,4.59,0,0,1,4.58-4.58m0-1.64a6.22,6.22,0,1,0,6.22,6.22,6.23,6.23,0,0,0-6.22-6.22Z"/></g></g></svg>